# xmcd CD database file
#
# Track frame offsets:
#	150
#	16615
#	26167
#
# Disc length: 567 seconds
#
# Revision: 0
# Processed by: cddbd v1.5PL3 Copyright (c) Steve Scherf et al.
# Submitted via: CDex 1.40Release
#
DISCID=16023503
DTITLE=Hysteric Blue - RUSH !
DYEAR=1900
DGENRE=Pop
TTITLE0=RUSH !
TTITLE1=P･O･T
TTITLE2=RUSH ! (オリジナル・カラオケ)
EXTD=
EXTT0=
EXTT1=
EXTT2=
PLAYORDER=
